<?xml version="1.0" standalone="no"?>
<!DOCTYPE svg PUBLIC "-//W3C//DTD SVG 1.1//EN" "http://www.w3.org/Graphics/SVG/1.1/DTD/svg11.dtd">
<!--Generator: Xara Designer (www.xara.com), SVG filter version: 6.2.0.0-->
<svg stroke-width="0.501" stroke-linejoin="bevel" fill-rule="evenodd" xmlns:xlink="http://www.w3.org/1999/xlink" xmlns="http://www.w3.org/2000/svg" version="1.1" overflow="visible" width="36pt" height="36pt" viewBox="0 0 36 36">
 <defs>
	</defs>
 <g id="Document" fill="none" stroke="black" font-family="Times New Roman" font-size="16" transform="scale(1 -1)">
  <g id="Spread" transform="translate(0 -36)">
   <g id="Layer 1">
    <g id="Group" stroke-linejoin="miter" stroke="none">
     <path d="M 0,35.999 L 0,0 L 35.999,0 L 35.999,35.999 L 0,35.999 Z" marker-start="none" marker-end="none"/>
     <g id="Group_1" fill="#ffffff">
      <path d="M 4.012,9.238 C -0.815,16.962 1.536,27.148 9.259,31.975 C 12.169,33.794 15.431,34.593 18.623,34.47 L 15.441,23.989 L 7.992,23.989 C 7.735,23.989 7.526,23.78 7.526,23.523 L 7.526,22.208 C 7.526,21.951 7.735,21.742 7.992,21.742 L 14.759,21.742 L 9.362,3.962 L 9.352,3.929 C 7.25,5.22 5.406,7.004 4.012,9.238 Z" marker-start="none" marker-end="none"/>
      <path d="M 11.811,2.69 C 14.217,6.659 17.265,10.331 20.944,13.551 C 21.981,14.458 23.048,15.312 24.14,16.111 L 25.745,10.824 L 25.747,10.82 C 25.804,10.629 25.982,10.49 26.191,10.49 L 27.242,10.496 L 28.474,10.491 C 28.523,10.496 28.571,10.515 28.61,10.551 C 28.672,10.608 28.694,10.695 28.67,10.772 L 28.663,10.801 L 26.415,17.673 C 28.876,19.258 31.448,20.584 34.094,21.655 C 35.612,14.995 32.865,7.813 26.749,3.991 C 22.093,1.081 16.543,0.779 11.811,2.69 Z M 13.086,8.486 L 17.109,21.742 L 22.432,21.742 L 23.455,18.37 L 23.45,18.386 C 22.081,17.419 20.75,16.372 19.462,15.245 C 17.087,13.167 14.964,10.91 13.094,8.511 L 13.086,8.486 Z M 28.664,10.799 L 28.661,10.811 L 28.663,10.801 L 28.664,10.799 Z M 25.699,19.864 L 25.085,21.742 L 28.931,21.742 C 27.834,21.167 26.754,20.547 25.694,19.881 L 25.699,19.864 Z M 17.791,23.989 L 19.771,30.512 L 21.75,23.989 L 17.791,23.989 Z M 24.351,23.989 L 21.012,34.203 C 25.4,33.388 29.445,30.807 31.996,26.728 C 32.548,25.843 33.007,24.926 33.375,23.989 L 24.351,23.989 Z" marker-start="none" marker-end="none"/>
     </g>
    </g>
   </g>
  </g>
 </g>
</svg>
